# xmcd CD database file
#
# Track frame offsets:
#	150
#	18182
#	38205
#	61455
#	85907
#	113812
#	135727
#	158140
#
# Disc length: 2385 seconds
#
# Revision: 1
# Processed by: cddbd v1.5.2PL0 Copyright (c) Steve Scherf et al.
# Submitted via: CDex 1.70beta3
#
DISCID=60094f08
DTITLE=森ユキ - あすか120%　-イメージアルバム-
DYEAR=1994
DGENRE=Vocal
TTITLE0=いつも120パーセント
TTITLE1=わがままでゴメンネ！
TTITLE2=WIND
TTITLE3=Follow You
TTITLE4=Freedom
TTITLE5=マ・ケ・タ・ク・ナ・イ
TTITLE6=Go!Go!ドリーム
TTITLE7=いつも120パーセント(Super Trance Mix)
EXTD=YEAR: 1994
EXTT0=
EXTT1=
EXTT2=
EXTT3=
EXTT4=
EXTT5=
EXTT6=
EXTT7=
PLAYORDER=
